<svg width="263" height="45" viewBox="0 0 263 45" fill="none" xmlns="http://www.w3.org/2000/svg">
<g clip-path="url(#clip0_306_110)">
<path fill-rule="evenodd" clip-rule="evenodd" d="M21.1501 7.35667C21.1501 8.08834 21.4408 8.79003 21.9581 9.3074C22.4755 9.82476 23.1772 10.1154 23.9088 10.1154H30.1234L21.9575 18.2813C21.5721 18.6672 21.3097 19.1587 21.2035 19.6937C21.0973 20.2287 21.1521 20.7832 21.3609 21.287C21.5697 21.7909 21.9232 22.2216 22.3767 22.5246C22.8303 22.8276 23.3634 22.9894 23.9088 22.9895H36.783C37.1453 22.9895 37.504 22.9182 37.8387 22.7795C38.1734 22.6409 38.4775 22.4377 38.7337 22.1815C38.9899 21.9253 39.1931 21.6212 39.3317 21.2865C39.4704 20.9518 39.5417 20.5931 39.5417 20.2308C39.5417 19.8685 39.4704 19.5098 39.3317 19.1751C39.1931 18.8404 38.9899 18.5362 38.7337 18.2801C38.4775 18.0239 38.1734 17.8207 37.8387 17.6821C37.504 17.5434 37.1453 17.4721 36.783 17.4721H30.5684L38.7343 9.30618C39.1198 8.92026 39.3821 8.42875 39.4883 7.89376C39.5945 7.35876 39.5397 6.8043 39.3309 6.30043C39.1221 5.79656 38.7686 5.3659 38.3151 5.06287C37.8616 4.75984 37.3284 4.59805 36.783 4.59793H23.9088C23.1772 4.59793 22.4755 4.88858 21.9581 5.40595C21.4408 5.92331 21.1501 6.62501 21.1501 7.35667ZM7.3564 19.3112C6.62473 19.3112 5.92304 19.0206 5.40567 18.5032C4.88831 17.9858 4.59766 17.2841 4.59766 16.5525C4.59766 15.8208 4.88831 15.1191 5.40567 14.6018C5.92304 14.0844 6.62473 13.7937 7.3564 13.7937H16.5522C17.0975 13.7942 17.6304 13.9563 18.0836 14.2594C18.5368 14.5626 18.8901 14.9933 19.0987 15.4971C19.3073 16.0009 19.3619 16.5552 19.2556 17.09C19.1494 17.6248 18.887 18.1162 18.5017 18.502L14.0178 22.9895H16.5522C17.2839 22.9895 17.9856 23.2802 18.5029 23.7976C19.0203 24.3149 19.3109 25.0166 19.3109 25.7483C19.3109 26.4799 19.0203 27.1816 18.5029 27.699C17.9856 28.2164 17.2839 28.507 16.5522 28.507H7.3564C6.81112 28.5065 6.27822 28.3445 5.82499 28.0413C5.37177 27.7381 5.01855 27.3075 4.80994 26.8037C4.60134 26.2999 4.54671 25.7456 4.65296 25.2107C4.7592 24.6759 5.02156 24.1846 5.40689 23.7988L9.8926 19.3112H7.3564ZM22.0697 32.1853C21.338 32.1853 20.6363 31.8947 20.119 31.3773C19.6016 30.86 19.3109 30.1583 19.3109 29.4266C19.3109 28.6949 19.6016 27.9932 20.119 27.4759C20.6363 26.9585 21.338 26.6679 22.0697 26.6679H29.4263C29.9716 26.6683 30.5045 26.8304 30.9577 27.1336C31.411 27.4367 31.7642 27.8674 31.9728 28.3712C32.1814 28.875 32.236 29.4293 32.1298 29.9641C32.0235 30.499 31.7612 30.9903 31.3758 31.3761L28.7293 34.0245H29.4263C30.158 34.0245 30.8597 34.3152 31.377 34.8325C31.8944 35.3499 32.1851 36.0516 32.1851 36.7832C32.1851 37.5149 31.8944 38.2166 31.377 38.734C30.8597 39.2513 30.158 39.542 29.4263 39.542H22.0697C21.5244 39.5415 20.9915 39.3794 20.5383 39.0763C20.0851 38.7731 19.7318 38.3424 19.5232 37.8386C19.3146 37.3348 19.26 36.7805 19.3662 36.2457C19.4725 35.7109 19.7348 35.2195 20.1202 34.8337L22.7667 32.1853H22.0697Z" fill="#424FC2"/>
</g>
<path d="M76.0813 30.1958C75.7723 29.6955 75.4044 29.1585 74.9778 28.5847C74.5658 27.9962 74.1097 27.415 73.6094 26.8412C73.1239 26.2526 72.6163 25.6935 72.0866 25.1639C71.5569 24.6195 71.0272 24.1413 70.4976 23.7293V30.1958H67.0547V14.9013H70.4976V20.6837C71.3951 19.742 72.2926 18.7636 73.1901 17.7484C74.1023 16.7184 74.9483 15.7694 75.7281 14.9013H79.8111C78.7664 16.1373 77.7144 17.329 76.6551 18.4767C75.6104 19.6243 74.5069 20.7793 73.3446 21.9416C74.5658 22.9569 75.7429 24.1634 76.8758 25.5611C78.0234 26.9589 79.1196 28.5038 80.1642 30.1958H76.0813ZM92.9423 30.1958C92.7805 29.6661 92.5966 29.1217 92.3906 28.5626C92.1993 28.0035 92.008 27.4444 91.8168 26.8853H85.8579C85.6666 27.4444 85.468 28.0035 85.262 28.5626C85.0707 29.1217 84.8942 29.6661 84.7323 30.1958H81.157C81.7308 28.5479 82.2752 27.0251 82.7902 25.6273C83.3051 24.2296 83.8054 22.9127 84.2909 21.6768C84.7912 20.4409 85.2767 19.2712 85.7475 18.1677C86.2331 17.0495 86.7333 15.9607 87.2483 14.9013H90.5367C91.037 15.9607 91.5299 17.0495 92.0154 18.1677C92.5009 19.2712 92.9865 20.4409 93.472 21.6768C93.9723 22.9127 94.4799 24.2296 94.9948 25.6273C95.5098 27.0251 96.0542 28.5479 96.628 30.1958H92.9423ZM88.8153 18.3663C88.7417 18.587 88.6313 18.8886 88.4842 19.2712C88.3371 19.6537 88.1679 20.0951 87.9766 20.5954C87.7853 21.0956 87.572 21.6474 87.3366 22.2506C87.1159 22.8539 86.8878 23.4865 86.6524 24.1486H91.0002C90.7648 23.4865 90.5367 22.8539 90.316 22.2506C90.0953 21.6474 89.882 21.0956 89.676 20.5954C89.4847 20.0951 89.3155 19.6537 89.1684 19.2712C89.0213 18.8886 88.9035 18.587 88.8153 18.3663ZM108.826 27.2384V30.1958H98.6078V14.9013H102.051V27.2384H108.826ZM120.07 30.1958C119.761 29.6955 119.393 29.1585 118.967 28.5847C118.555 27.9962 118.099 27.415 117.598 26.8412C117.113 26.2526 116.605 25.6935 116.076 25.1639C115.546 24.6195 115.016 24.1413 114.487 23.7293V30.1958H111.044V14.9013H114.487V20.6837C115.384 19.742 116.282 18.7636 117.179 17.7484C118.091 16.7184 118.937 15.7694 119.717 14.9013H123.8C122.755 16.1373 121.703 17.329 120.644 18.4767C119.599 19.6243 118.496 20.7793 117.334 21.9416C118.555 22.9569 119.732 24.1634 120.865 25.5611C122.012 26.9589 123.109 28.5038 124.153 30.1958H120.07ZM132.111 30.5048C131.037 30.5048 130.11 30.3576 129.331 30.0634C128.551 29.7544 127.903 29.3351 127.389 28.8054C126.888 28.261 126.513 27.621 126.263 26.8853C126.028 26.1349 125.91 25.311 125.91 24.4135V14.9013H129.353V24.1266C129.353 24.7445 129.419 25.2742 129.551 25.7156C129.698 26.1423 129.89 26.4954 130.125 26.775C130.375 27.0398 130.67 27.2311 131.008 27.3488C131.361 27.4665 131.744 27.5253 132.156 27.5253C132.994 27.5253 133.671 27.2679 134.186 26.7529C134.716 26.2379 134.981 25.3625 134.981 24.1266V14.9013H138.423V24.4135C138.423 25.311 138.298 26.1349 138.048 26.8853C137.798 27.6357 137.416 28.2831 136.901 28.8275C136.386 29.3571 135.731 29.7691 134.936 30.0634C134.142 30.3576 133.2 30.5048 132.111 30.5048ZM151.953 27.2384V30.1958H141.735V14.9013H145.178V27.2384H151.953ZM165.101 30.1958C164.939 29.6661 164.755 29.1217 164.549 28.5626C164.358 28.0035 164.166 27.4444 163.975 26.8853H158.016C157.825 27.4444 157.626 28.0035 157.42 28.5626C157.229 29.1217 157.053 29.6661 156.891 30.1958H153.315C153.889 28.5479 154.434 27.0251 154.949 25.6273C155.463 24.2296 155.964 22.9127 156.449 21.6768C156.95 20.4409 157.435 19.2712 157.906 18.1677C158.391 17.0495 158.892 15.9607 159.407 14.9013H162.695C163.195 15.9607 163.688 17.0495 164.174 18.1677C164.659 19.2712 165.145 20.4409 165.63 21.6768C166.131 22.9127 166.638 24.2296 167.153 25.6273C167.668 27.0251 168.213 28.5479 168.786 30.1958H165.101ZM160.974 18.3663C160.9 18.587 160.79 18.8886 160.643 19.2712C160.495 19.6537 160.326 20.0951 160.135 20.5954C159.944 21.0956 159.73 21.6474 159.495 22.2506C159.274 22.8539 159.046 23.4865 158.811 24.1486H163.159C162.923 23.4865 162.695 22.8539 162.474 22.2506C162.254 21.6474 162.04 21.0956 161.834 20.5954C161.643 20.0951 161.474 19.6537 161.327 19.2712C161.18 18.8886 161.062 18.587 160.974 18.3663ZM180.3 14.9013V17.8366H175.687V30.1958H172.244V17.8366H167.631V14.9013H180.3ZM184.886 22.5375C184.886 23.2879 184.974 23.9647 185.151 24.568C185.342 25.1712 185.607 25.6935 185.946 26.1349C186.299 26.5616 186.725 26.8927 187.226 27.1281C187.726 27.3635 188.3 27.4812 188.947 27.4812C189.58 27.4812 190.146 27.3635 190.646 27.1281C191.161 26.8927 191.588 26.5616 191.927 26.1349C192.28 25.6935 192.544 25.1712 192.721 24.568C192.912 23.9647 193.008 23.2879 193.008 22.5375C193.008 21.7872 192.912 21.1103 192.721 20.5071C192.544 19.8891 192.28 19.3668 191.927 18.9401C191.588 18.4987 191.161 18.1603 190.646 17.9249C190.146 17.6895 189.58 17.5718 188.947 17.5718C188.3 17.5718 187.726 17.6969 187.226 17.947C186.725 18.1824 186.299 18.5208 185.946 18.9622C185.607 19.3889 185.342 19.9112 185.151 20.5292C184.974 21.1324 184.886 21.8019 184.886 22.5375ZM196.561 22.5375C196.561 23.847 196.363 25.002 195.965 26.0025C195.583 26.9883 195.053 27.8196 194.376 28.4964C193.699 29.1585 192.89 29.6588 191.949 29.9972C191.022 30.3356 190.021 30.5048 188.947 30.5048C187.902 30.5048 186.917 30.3356 185.99 29.9972C185.063 29.6588 184.254 29.1585 183.562 28.4964C182.87 27.8196 182.326 26.9883 181.929 26.0025C181.532 25.002 181.333 23.847 181.333 22.5375C181.333 21.2281 181.539 20.0804 181.951 19.0946C182.363 18.0941 182.915 17.2555 183.606 16.5787C184.312 15.9018 185.122 15.3942 186.034 15.0558C186.961 14.7174 187.932 14.5482 188.947 14.5482C189.992 14.5482 190.977 14.7174 191.904 15.0558C192.831 15.3942 193.641 15.9018 194.332 16.5787C195.024 17.2555 195.568 18.0941 195.965 19.0946C196.363 20.0804 196.561 21.2281 196.561 22.5375ZM203.911 14.7248C206.207 14.7248 207.965 15.1368 209.186 15.9607C210.407 16.7699 211.018 18.0353 211.018 19.7567C211.018 20.8308 210.768 21.7062 210.267 22.383C209.782 23.0451 209.076 23.5675 208.149 23.95C208.458 24.3326 208.781 24.774 209.12 25.2742C209.458 25.7597 209.789 26.2747 210.113 26.8191C210.451 27.3488 210.775 27.9079 211.084 28.4964C211.393 29.0702 211.68 29.6367 211.945 30.1958H208.083C207.803 29.6955 207.516 29.1879 207.222 28.673C206.942 28.158 206.648 27.6578 206.339 27.1722C206.045 26.6867 205.75 26.2306 205.456 25.8039C205.162 25.3625 204.868 24.9652 204.573 24.6121H202.874V30.1958H199.431V15.122C200.182 14.9749 200.954 14.8719 201.748 14.8131C202.558 14.7542 203.279 14.7248 203.911 14.7248ZM204.11 17.6601C203.86 17.6601 203.632 17.6674 203.426 17.6821C203.235 17.6969 203.051 17.7116 202.874 17.7263V21.8754H203.845C205.14 21.8754 206.067 21.7136 206.626 21.3899C207.185 21.0662 207.465 20.5145 207.465 19.7347C207.465 18.9843 207.178 18.4546 206.604 18.1456C206.045 17.8219 205.213 17.6601 204.11 17.6601ZM223.625 27.5695C224.11 27.5695 224.508 27.5327 224.817 27.4591C225.14 27.3708 225.398 27.2605 225.589 27.1281C225.78 26.9809 225.913 26.8117 225.986 26.6205C226.06 26.4292 226.097 26.2159 226.097 25.9804C226.097 25.4802 225.861 25.0682 225.39 24.7445C224.92 24.4061 224.11 24.0456 222.963 23.6631C222.462 23.4865 221.962 23.2879 221.462 23.0672C220.962 22.8318 220.513 22.5449 220.116 22.2065C219.718 21.8534 219.395 21.434 219.145 20.9485C218.894 20.4482 218.769 19.845 218.769 19.1388C218.769 18.4325 218.902 17.7999 219.167 17.2408C219.431 16.6669 219.807 16.1814 220.292 15.7841C220.778 15.3869 221.366 15.0853 222.058 14.8793C222.749 14.6586 223.529 14.5482 224.397 14.5482C225.427 14.5482 226.317 14.6586 227.068 14.8793C227.818 15.1 228.436 15.3427 228.922 15.6076L227.928 18.3222C227.502 18.1015 227.024 17.9102 226.494 17.7484C225.979 17.5718 225.354 17.4835 224.618 17.4835C223.794 17.4835 223.198 17.6012 222.83 17.8366C222.477 18.0573 222.301 18.4031 222.301 18.8739C222.301 19.1535 222.367 19.3889 222.499 19.5802C222.632 19.7714 222.816 19.948 223.051 20.1098C223.301 20.257 223.581 20.3968 223.89 20.5292C224.213 20.6469 224.566 20.7719 224.949 20.9044C225.743 21.1986 226.435 21.4929 227.024 21.7872C227.612 22.0667 228.098 22.3978 228.48 22.7803C228.877 23.1628 229.172 23.6116 229.363 24.1266C229.554 24.6415 229.65 25.2668 229.65 26.0025C229.65 27.4297 229.15 28.5406 228.149 29.3351C227.149 30.1149 225.641 30.5048 223.625 30.5048C222.948 30.5048 222.337 30.4606 221.793 30.3724C221.249 30.2988 220.763 30.2032 220.336 30.0855C219.924 29.9677 219.564 29.8427 219.255 29.7103C218.961 29.5778 218.711 29.4528 218.505 29.3351L219.476 26.5984C219.932 26.8485 220.491 27.0766 221.153 27.2826C221.83 27.4738 222.654 27.5695 223.625 27.5695ZM242.561 30.1958C241.576 28.4449 240.509 26.7161 239.361 25.0094C238.214 23.3026 236.992 21.6915 235.698 20.1761V30.1958H232.299V14.9013H235.102C235.587 15.3869 236.124 15.9828 236.713 16.689C237.301 17.3952 237.897 18.153 238.501 18.9622C239.119 19.7567 239.729 20.588 240.332 21.4561C240.936 22.3095 241.502 23.1334 242.032 23.9279V14.9013H245.453V30.1958H242.561ZM254.962 30.5048C253.888 30.5048 252.961 30.3576 252.181 30.0634C251.401 29.7544 250.754 29.3351 250.239 28.8054C249.738 28.261 249.363 27.621 249.113 26.8853C248.878 26.1349 248.76 25.311 248.76 24.4135V14.9013H252.203V24.1266C252.203 24.7445 252.269 25.2742 252.402 25.7156C252.549 26.1423 252.74 26.4954 252.975 26.775C253.225 27.0398 253.52 27.2311 253.858 27.3488C254.211 27.4665 254.594 27.5253 255.006 27.5253C255.844 27.5253 256.521 27.2679 257.036 26.7529C257.566 26.2379 257.831 25.3625 257.831 24.1266V14.9013H261.274V24.4135C261.274 25.311 261.149 26.1349 260.898 26.8853C260.648 27.6357 260.266 28.2831 259.751 28.8275C259.236 29.3571 258.581 29.7691 257.787 30.0634C256.992 30.3576 256.05 30.5048 254.962 30.5048Z" fill="white"/>
<defs>
<clipPath id="clip0_306_110">
<rect width="44.1399" height="44.1399" fill="white"/>
</clipPath>
</defs>
</svg>
