<svg width="40" height="40" viewBox="0 0 40 40" fill="none" xmlns="http://www.w3.org/2000/svg">
<path fill-rule="evenodd" clip-rule="evenodd" d="M18.9791 6.60141C18.9791 7.25796 19.2399 7.88762 19.7042 8.35187C20.1684 8.81612 20.7981 9.07693 21.4546 9.07693H27.0312L19.7036 16.4045C19.3578 16.7508 19.1223 17.1918 19.027 17.6719C18.9317 18.152 18.9809 18.6495 19.1683 19.1017C19.3557 19.5538 19.6729 19.9403 20.0798 20.2122C20.4868 20.4841 20.9652 20.6293 21.4546 20.6294H33.0071C33.3322 20.6294 33.6541 20.5653 33.9544 20.4409C34.2548 20.3165 34.5277 20.1342 34.7576 19.9043C34.9874 19.6744 35.1698 19.4015 35.2942 19.1012C35.4186 18.8009 35.4826 18.4789 35.4826 18.1539C35.4826 17.8288 35.4186 17.5069 35.2942 17.2065C35.1698 16.9062 34.9874 16.6333 34.7576 16.4034C34.5277 16.1735 34.2548 15.9912 33.9544 15.8668C33.6541 15.7424 33.3322 15.6783 33.0071 15.6783H27.4306L34.7581 8.35078C35.104 8.00448 35.3394 7.56343 35.4347 7.08336C35.53 6.60329 35.4809 6.10574 35.2935 5.6536C35.1061 5.20146 34.7889 4.81501 34.3819 4.54309C33.975 4.27117 33.4965 4.12599 33.0071 4.12589H21.4546C20.7981 4.12589 20.1684 4.3867 19.7042 4.85095C19.2399 5.3152 18.9791 5.94486 18.9791 6.60141ZM6.6015 17.3287C5.94495 17.3287 5.31529 17.0679 4.85104 16.6036C4.38679 16.1394 4.12598 15.5097 4.12598 14.8532C4.12598 14.1966 4.38679 13.5669 4.85104 13.1027C5.31529 12.6384 5.94495 12.3776 6.6015 12.3776H14.8532C15.3425 12.3781 15.8207 12.5235 16.2274 12.7955C16.6341 13.0676 16.9511 13.454 17.1383 13.9061C17.3255 14.3582 17.3745 14.8556 17.2791 15.3355C17.1838 15.8154 16.9484 16.2563 16.6026 16.6025L12.5791 20.6294H14.8532C15.5098 20.6294 16.1395 20.8902 16.6037 21.3544C17.068 21.8187 17.3288 22.4484 17.3288 23.1049C17.3288 23.7615 17.068 24.3911 16.6037 24.8554C16.1395 25.3196 15.5098 25.5804 14.8532 25.5804H6.6015C6.11221 25.58 5.63401 25.4346 5.22731 25.1625C4.82062 24.8905 4.50366 24.504 4.31647 24.052C4.12928 23.5999 4.08026 23.1025 4.1756 22.6226C4.27094 22.1426 4.50636 21.7017 4.85213 21.3555L8.87733 17.3287H6.6015ZM19.8043 28.8811C19.1477 28.8811 18.5181 28.6203 18.0538 28.1561C17.5896 27.6918 17.3288 27.0622 17.3288 26.4056C17.3288 25.7491 17.5896 25.1194 18.0538 24.6551C18.5181 24.1909 19.1477 23.9301 19.8043 23.9301H26.4057C26.895 23.9305 27.3732 24.0759 27.7799 24.348C28.1866 24.62 28.5035 25.0065 28.6907 25.4586C28.8779 25.9106 28.9269 26.408 28.8316 26.888C28.7363 27.3679 28.5008 27.8088 28.1551 28.155L25.7802 30.5315H26.4057C27.0622 30.5315 27.6919 30.7923 28.1562 31.2565C28.6204 31.7208 28.8812 32.3505 28.8812 33.007C28.8812 33.6636 28.6204 34.2932 28.1562 34.7575C27.6919 35.2217 27.0622 35.4825 26.4057 35.4825H19.8043C19.315 35.4821 18.8368 35.3367 18.4301 35.0646C18.0234 34.7926 17.7065 34.4061 17.5193 33.9541C17.3321 33.502 17.2831 33.0046 17.3784 32.5247C17.4737 32.0447 17.7092 31.6038 18.0549 31.2576L20.4298 28.8811H19.8043Z" fill="#424FC2"/>
</svg>
