<svg width="88" height="25" viewBox="0 0 88 25" fill="none" xmlns="http://www.w3.org/2000/svg">
<path d="M6.12252 21.3708C5.80716 18.4418 6.004 16.8003 6.12251 13.7781C6.22309 11.2135 6.1752 7.73467 7.8754 5.82962C9.28323 4.25217 12.5214 3.45191 14.6893 4.42172C17.3857 5.62802 17.8317 9.63059 18.0748 12.1664C18.334 14.8691 17.8422 18.806 20.1447 20.7842C22.0817 22.4484 27.1286 22.0761 28.8897 20.3151C31.3991 17.8056 29.8167 8.0896 30.1224 4.42171" stroke="url(#paint0_linear_307_183)" stroke-width="4.40259" stroke-linecap="round" stroke-linejoin="round"/>
<path d="M44.4138 7.92679C45.7954 7.92679 46.8538 8.17477 47.5888 8.67073C48.3239 9.15783 48.6914 9.91947 48.6914 10.9557C48.6914 11.6022 48.5409 12.1291 48.2398 12.5365C47.9475 12.9351 47.5224 13.2495 46.9645 13.4797C47.1504 13.71 47.3453 13.9757 47.549 14.2768C47.7527 14.5691 47.9519 14.879 48.1468 15.2067C48.3505 15.5256 48.5453 15.8621 48.7313 16.2163C48.9173 16.5617 49.09 16.9027 49.2494 17.2393H46.9246C46.7563 16.9381 46.5836 16.6326 46.4065 16.3226C46.2382 16.0127 46.0611 15.7115 45.8751 15.4193C45.698 15.127 45.5209 14.8525 45.3437 14.5956C45.1666 14.3299 44.9895 14.0908 44.8124 13.8783H43.7894V17.2393H41.7171V8.16591C42.1687 8.07735 42.6337 8.01536 43.1119 7.97993C43.599 7.9445 44.033 7.92679 44.4138 7.92679ZM44.5334 9.69364C44.3828 9.69364 44.2456 9.69806 44.1216 9.70692C44.0064 9.71578 43.8957 9.72463 43.7894 9.73349V12.231H44.374C45.1533 12.231 45.7113 12.1336 46.0478 11.9387C46.3844 11.7439 46.5526 11.4118 46.5526 10.9424C46.5526 10.4907 46.3799 10.1719 46.0345 9.9859C45.698 9.79106 45.1976 9.69364 44.5334 9.69364ZM50.5777 17.2393V8.03307H56.7949V9.77334H52.6501V11.58H56.33V13.2805H52.6501V15.499H57.1005V17.2393H50.5777ZM61.5134 17.2393C61.1503 16.4688 60.7916 15.6673 60.4374 14.8348C60.0831 14.0023 59.7466 13.1786 59.4277 12.3638C59.1089 11.549 58.8122 10.7697 58.5377 10.0257C58.272 9.28181 58.0417 8.61759 57.8469 8.03307H60.1318C60.309 8.56445 60.4994 9.14011 60.7031 9.76006C60.9156 10.3711 61.1282 10.9822 61.3407 11.5933C61.5621 12.2044 61.7747 12.7889 61.9784 13.3469C62.1821 13.9048 62.3725 14.3875 62.5496 14.7949C62.7179 14.3875 62.9039 13.9048 63.1076 13.3469C63.3201 12.7889 63.5327 12.2044 63.7452 11.5933C63.9666 10.9822 64.1792 10.3711 64.3829 9.76006C64.5954 9.14011 64.7903 8.56445 64.9674 8.03307H67.1726C66.9689 8.61759 66.7342 9.28181 66.4686 10.0257C66.2029 10.7697 65.9106 11.549 65.5918 12.3638C65.2729 13.1786 64.9364 14.0023 64.5821 14.8348C64.2279 15.6673 63.8692 16.4688 63.5061 17.2393H61.5134ZM73.7974 17.2393C73.6114 16.9381 73.39 16.6149 73.1331 16.2695C72.8852 15.9152 72.6106 15.5654 72.3095 15.22C72.0172 14.8658 71.7117 14.5292 71.3929 14.2104C71.074 13.8827 70.7552 13.5949 70.4364 13.3469V17.2393H68.364V8.03307H70.4364V11.5136C70.9766 10.9468 71.5169 10.3579 72.0571 9.74677C72.6062 9.12683 73.1154 8.55559 73.5848 8.03307H76.0425C75.4137 8.777 74.7804 9.49437 74.1428 10.1852C73.514 10.876 72.8497 11.5712 72.1501 12.2708C72.8852 12.8819 73.5937 13.6081 74.2756 14.4495C74.9664 15.2909 75.6262 16.2208 76.255 17.2393H73.7974ZM81.0453 17.4252C80.3988 17.4252 79.8409 17.3367 79.3715 17.1596C78.9021 16.9736 78.5124 16.7212 78.2024 16.4023C77.9013 16.0746 77.6755 15.6894 77.5249 15.2466C77.3832 14.7949 77.3124 14.2989 77.3124 13.7587V8.03307H79.3848V13.586C79.3848 13.958 79.4246 14.2768 79.5043 14.5425C79.5929 14.7993 79.708 15.0119 79.8497 15.1802C80.0003 15.3396 80.1774 15.4547 80.3811 15.5256C80.5937 15.5964 80.8239 15.6318 81.0719 15.6318C81.5767 15.6318 81.9841 15.4768 82.2941 15.1669C82.6129 14.8569 82.7723 14.3299 82.7723 13.586V8.03307H84.8447V13.7587C84.8447 14.2989 84.7694 14.7949 84.6189 15.2466C84.4683 15.6983 84.2381 16.0879 83.9281 16.4156C83.6181 16.7344 83.224 16.9824 82.7458 17.1596C82.2675 17.3367 81.7007 17.4252 81.0453 17.4252Z" fill="white"/>
<defs>
<linearGradient id="paint0_linear_307_183" x1="0.933195" y1="12.8052" x2="35.4495" y2="12.8052" gradientUnits="userSpaceOnUse">
<stop stop-color="#BD00FF"/>
<stop offset="1" stop-color="#5369DD"/>
</linearGradient>
</defs>
</svg>
