<svg width="60" height="60" viewBox="0 0 60 60" fill="none" xmlns="http://www.w3.org/2000/svg">
<path fill-rule="evenodd" clip-rule="evenodd" d="M28.8791 13.1741C28.8791 13.9871 29.1798 14.7667 29.715 15.3416C30.2502 15.9164 30.9761 16.2394 31.7329 16.2394H38.1618L29.7143 25.3126C29.3156 25.7414 29.0441 26.2875 28.9343 26.8819C28.8244 27.4764 28.8811 28.0924 29.0972 28.6523C29.3132 29.2121 29.6789 29.6906 30.148 30.0273C30.6172 30.364 31.1687 30.5438 31.7329 30.5439H45.051C45.4258 30.5439 45.7969 30.4647 46.1431 30.3106C46.4894 30.1566 46.804 29.9308 47.069 29.6461C47.334 29.3615 47.5442 29.0236 47.6876 28.6517C47.8311 28.2798 47.9049 27.8812 47.9049 27.4787C47.9049 27.0761 47.8311 26.6775 47.6876 26.3056C47.5442 25.9338 47.334 25.5958 47.069 25.3112C46.804 25.0266 46.4894 24.8008 46.1431 24.6467C45.7969 24.4927 45.4258 24.4134 45.051 24.4134H38.6222L47.0696 15.3402C47.4684 14.9114 47.7398 14.3653 47.8497 13.7709C47.9595 13.1764 47.9028 12.5603 47.6868 12.0005C47.4708 11.4406 47.1051 10.9621 46.6359 10.6254C46.1668 10.2887 45.6152 10.109 45.051 10.1088H31.7329C30.9761 10.1088 30.2502 10.4318 29.715 11.0066C29.1798 11.5815 28.8791 12.3611 28.8791 13.1741ZM14.6097 26.4569C13.8528 26.4569 13.1269 26.134 12.5917 25.5591C12.0565 24.9843 11.7559 24.2046 11.7559 23.3917C11.7559 22.5787 12.0565 21.799 12.5917 21.2242C13.1269 20.6493 13.8528 20.3264 14.6097 20.3264H24.1226C24.6867 20.3269 25.238 20.507 25.7068 20.8438C26.1757 21.1807 26.5411 21.6592 26.7569 22.219C26.9727 22.7788 27.0292 23.3947 26.9193 23.9889C26.8094 24.5832 26.538 25.1291 26.1394 25.5578L21.5009 30.5439H24.1226C24.8795 30.5439 25.6054 30.8669 26.1406 31.4417C26.6758 32.0166 26.9765 32.7963 26.9765 33.6092C26.9765 34.4222 26.6758 35.2018 26.1406 35.7767C25.6054 36.3515 24.8795 36.6745 24.1226 36.6745H14.6097C14.0457 36.6739 13.4944 36.4939 13.0255 36.157C12.5567 35.8202 12.1913 35.3416 11.9755 34.7819C11.7597 34.2221 11.7032 33.6062 11.8131 33.0119C11.923 32.4177 12.1944 31.8718 12.593 31.4431L17.2334 26.4569H14.6097ZM29.8304 40.7615C29.0735 40.7615 28.3476 40.4386 27.8124 39.8637C27.2772 39.2889 26.9765 38.5092 26.9765 37.6962C26.9765 36.8833 27.2772 36.1036 27.8124 35.5288C28.3476 34.9539 29.0735 34.631 29.8304 34.631H37.4407C38.0048 34.6315 38.556 34.8116 39.0249 35.1484C39.4938 35.4853 39.8592 35.9638 40.075 36.5236C40.2908 37.0833 40.3473 37.6992 40.2374 38.2935C40.1274 38.8877 39.856 39.4337 39.4574 39.8624L36.7196 42.805H37.4407C38.1976 42.805 38.9235 43.128 39.4587 43.7028C39.9939 44.2777 40.2946 45.0573 40.2946 45.8703C40.2946 46.6832 39.9939 47.4629 39.4587 48.0378C38.9235 48.6126 38.1976 48.9356 37.4407 48.9356H29.8304C29.2663 48.935 28.715 48.755 28.2462 48.4181C27.7773 48.0812 27.4119 47.6027 27.1961 47.0429C26.9803 46.4832 26.9238 45.8673 27.0337 45.273C27.1436 44.6788 27.415 44.1328 27.8136 43.7042L30.5514 40.7615H29.8304Z" fill="#424FC2"/>
</svg>
